/* XPM */
static char *coin1705999043[] = {
/* columns rows colors chars-per-pixel */
"32 32 7 1 ",
"  c #9C4A00",
". c #CC7E00",
"X c #CC6A14",
"o c #E69C21",
"O c #E5968A",
"+ c #FFCEC6",
"@ c white",
/* pixels */
"@@@@@@@@@@@@@@@@@@@@@@@@@@@@@@@@",
"@@@@@@@@@@@@@@@@@@@@@@@@@@@@@@@@",
"@@@@@@@@@@@@OOOOOOOO@@@@@@@@@@@@",
"@@@@@@@@@OOO++++++++...@@@@@@@@@",
"@@@@@@@OO+++++++++ooooo..@@@@@@@",
"@@@@@@O++++++++++oooo++++.@@@@@@",
"@@@@@O+++++++......o++++++.@@@@@",
"@@@@O++++++..+++++...++++++.@@@@",
"@@@@O++++..  +oooo.  ..++++.@@@@",
"@@@O++++.. XX+oooo. X ..++o+.@@@",
"@@@O++++. Xoo+oooo. oX .+ooo.@@@",
"@@@O+++. Xooo+oooo. ooX .ooo.@@@",
"@@O++++. Xooo+oooo. ooX .ooo+.@@",
"@@O+++. Xoooo+oooo. oooX .ooo.@@",
"@@O+++. Xoooo+oooo. oooX .ooo.@@",
"@@O+++. ooooo+oooo. oooo .ooo.@@",
"@@O+++. ooooo+oooo. oooo .ooo.@@",
"@@O+++. Xoooo+oooo. oooX .ooo.@@",
"@@O+++. XXXoo+oooo. oXXX .ooo.@@",
"@@O++++. XXXX+oooo. XXX .oooo.@@",
"@@@O+++. XXXX+oooo. XXX .ooo.@@@",
"@@@O++++. XXX+oooo. XX .oooo.@@@",
"@@@O++++.. XX+oooo. X ..ooo+.@@@",
"@@@@O++++..  ......  ..+ooo.@@@@",
"@@@@O++++++..      ..+++ooo.@@@@",
"@@@@@O+++++++......+++++o+.@@@@@",
"@@@@@@O++++++++ooo+++++o+.@@@@@@",
"@@@@@@@OO+++++ooo+++++o..@@@@@@@",
"@@@@@@@@@OOOooo+++++...@@@@@@@@@",
"@@@@@@@@@@@@........@@@@@@@@@@@@",
"@@@@@@@@@@@@@@@@@@@@@@@@@@@@@@@@",
"@@@@@@@@@@@@@@@@@@@@@@@@@@@@@@@@"
};
