/* XPM */
static char *exit1705999044[] = {
/* columns rows colors chars-per-pixel */
"32 32 6 1 ",
"  c gray20",
". c #0A6600",
"X c #109400",
"o c #8CD600",
"O c #BDE573",
"+ c white",
/* pixels */
"++++++++++++++++++++++++++++++++",
"++++++++++++++....++++++++++++++",
"++++++++++++..Ooo...++++++++++++",
"+++++++++++.OoXXoX.X +++++++++++",
"++++++++++.OoX.oX.ooX ++++++++++",
"+++++++++.OoX..XX.XOoX +++++++++",
"+++++++++.OoX..oXX.XOo +++++++++",
"++++++++.OoX..oXoXX.X.X ++++++++",
"++++++++.OOo..XoXX.X.Xo ++++++++",
"++++++++.oOOo.oXoXX.Oo. ++++++++",
"++++++++.XoOOOOOOOOOo.. ++++++++",
"+++++++++.XooOOOOooo.. +++++++++",
"+++++++++.X.Xoooo..... +++++++++",
"++++++++++.X........X ++++++++++",
"+++++++++++.XX.....X +++++++++++",
"++++++++++++  XXXX  ++++++++++++",
"++++++++++++++    ++++++++++++++",
"++++++++++++++OXo.++++++++++++++",
"++++++++++++++OXo.++++++++++++++",
"++++++++++++++OXo.++++++++++++++",
"++++++++++++++OXo.++++++++++++++",
"++++++++++++++OXo.++++++++++++++",
"++++++++++++++OXo.++++++++++++++",
"++++++++++++++OXo.++++++++++++++",
"++++++++++++++OXo.++++++++++++++",
"++++++++++++++OXo.++++++++++++++",
"++++++++++++++OXo.++++++++++++++",
"++++++++++++++OXo.++++++++++++++",
"++++++++++++++OXo.++++++++++++++",
"++++++++++++++OXo.++++++++++++++",
"++++++++++++++OXo.++++++++++++++",
"++++++++++++++OXo.++++++++++++++"
};
