/* XPM */
static char *turn_right1705999044[] = {
/* columns rows colors chars-per-pixel */
"32 32 8 1 ",
"  c #B31200",
". c #FF3118",
"X c #80460D",
"o c #C66300",
"O c #FF945A",
"+ c #FFAC80",
"@ c gray80",
"# c white",
/* pixels */
"##############......############",
"##########..... .@#..###########",
"########.....  .@ .#.###########",
"#######..        .........######",
"######.       ...          #####",
"######.                   ######",
"###### .    XXXoO@XOOX@Xo#######",
"#######XXoXXXoOO+#oO+o#o########",
"######XXo+oXoOO+O++OO++++#######",
"######Xo+OoXOO+++OOO+OO+++######",
"######XoOO+oO+++oXooOOOO+++#####",
"######XXoO++oO+oXXXXooO+O++#####",
"#######Xoo++++OOoXXXXXXooo######",
"#######XXoO+++++OooooooO+#######",
"########XOOOOOOOOOOOOOO+########",
"#########ooXXXXXooo  .o#########",
"########ooXXXXXXXooo. Xo########",
"########ooXXXXXXXXoooooO+#######",
"########ooXXXXXXXXXXXXX++OO#####",
"#######+.ooXXXXXXXXXXXX+OO+#####",
"######+O .ooooXXXXXXXXXOO+O#####",
"######OO..    ooooXXXXXO+O+#####",
"######X .         oooooO+++#####",
"#####XXo           .....########",
"#####XoX  .     .   . .#########",
"####XooX   .  ..   . ..#########",
"####XoXo  . ..#     ..##########",
"####XXoX.....##..  .XX##########",
"####XXX########XXXXoX###########",
"####XX#########oXooXooX#########",
"###############XXXXXXX##########",
"################################"
};
