/* XPM */
static char *turn_left1705999044[] = {
/* columns rows colors chars-per-pixel */
"32 32 8 1 ",
"  c #B31200",
". c #FF3118",
"X c #80460D",
"o c #C66300",
"O c #FF945A",
"+ c #FFAC80",
"@ c gray80",
"# c white",
/* pixels */
"############......##############",
"###########..#@. .....##########",
"###########.#. @.  .....########",
"######.........        ..#######",
"#####          ...       .######",
"######                   .######",
"#######oX@XOOX@OoXXX    . ######",
"########o#o+Oo#+OOoXXXoXX#######",
"#######++++OO++O+OOoXo+oXX######",
"######+++OO+OOO+++OOXoO+oX######",
"#####+++OOOOooXo+++Oo+OOoX######",
"#####++O+OooXXXXo+Oo++OoXX######",
"######oooXXXXXXoOO++++ooX#######",
"#######+OooooooO+++++OoXX#######",
"########+OOOOOOOOOOOOOOX########",
"#########o.  oooXXXXXoo#########",
"########oX .oooXXXXXXXoo########",
"#######+OoooooXXXXXXXXoo########",
"#####OO++XXXXXXXXXXXXXoo########",
"#####+OO+XXXXXXXXXXXXoo.+#######",
"#####O+OOXXXXXXXXXoooo. O+######",
"#####+O+OXXXXXoooo    ..OO######",
"#####+++Oooooo         . X######",
"########.....           oXX#####",
"#########. .   .     .  XoX#####",
"#########.. .   ..  .   XooX####",
"##########..     #.. .  oXoX####",
"##########XX.  ..##.....XoXX####",
"###########XoXXXX########XXX####",
"#########XooXooXo#########XX####",
"##########XXXXXXX###############",
"################################"
};
