/* XPM */
static char *_ba64c1af7fe47a7a3f8709ef3b4e051RoXqQj08gIElfb7s[] = {
/* columns rows colors chars-per-pixel */
"32 32 218 2 ",
"   c #AD833B",
".  c #BD8632",
"X  c #BC8B33",
"o  c #B6853A",
"O  c #BE8638",
"+  c #BD8A3A",
"@  c #BD933B",
"#  c #C3842F",
"$  c #C38532",
"%  c #C48935",
"&  c #CC8C34",
"*  c #C48D3B",
"=  c #CA8C38",
"-  c #D18B34",
";  c #CC9236",
":  c #C6913D",
">  c #CC913B",
",  c #C9993D",
"<  c #D2933B",
"1  c #D39938",
"2  c #D39A3B",
"3  c #C6A63E",
"4  c #D5A13F",
"5  c #B78847",
"6  c #BC8D44",
"7  c #BC8D49",
"8  c #BF9344",
"9  c #B6904F",
"0  c #BB914C",
"q  c #B99558",
"w  c #AD9B76",
"e  c #C18E41",
"r  c #C59244",
"t  c #CA9544",
"y  c #CD9D44",
"u  c #C4944B",
"i  c #CB974A",
"p  c #C59C4E",
"a  c #CB9A4C",
"s  c #D69A45",
"d  c #D29C45",
"f  c #D59F4C",
"g  c #C49751",
"h  c #C59656",
"j  c #C49A56",
"k  c #CB9D54",
"l  c #C59C5C",
"z  c #CC9E5A",
"x  c #D19F52",
"c  c #D39F5A",
"v  c #CAA348",
"b  c #CCA748",
"n  c #D3A344",
"m  c #DCA446",
"M  c #D4AA4A",
"N  c #DBAC4E",
"B  c #CBB149",
"V  c #D5B24C",
"C  c #CDA255",
"Z  c #CDAE55",
"A  c #C5A658",
"S  c #CDA15C",
"D  c #CDAC5F",
"F  c #D3A255",
"G  c #DAA954",
"H  c #D3A35C",
"J  c #D1AC5D",
"K  c #D1BB54",
"L  c #D9B359",
"P  c #DDBB5E",
"I  c #E6AB54",
"U  c #C69E61",
"Y  c #CDA464",
"T  c #C6A965",
"R  c #CBA66D",
"E  c #CEA96C",
"W  c #D3A563",
"Q  c #D6AA66",
"!  c #DAAD63",
"~  c #D4AB6B",
"^  c #DAAD6A",
"/  c #CEBF67",
"(  c #D1B366",
")  c #DDB064",
"_  c #DBB16C",
"`  c #D7BE68",
"'  c #DABB6B",
"]  c #C0A876",
"[  c #CDAB72",
"{  c #D4AD72",
"}  c #D8AC74",
"|  c #CFB874",
" . c #D6B273",
".. c #DBB373",
"X. c #DCBB75",
"o. c #D5B47C",
"O. c #DCB57B",
"+. c #D7BA7A",
"@. c #DEB97B",
"#. c #E5BC69",
"$. c #E1B570",
"%. c #E0BC74",
"&. c #E2BB7D",
"*. c #D9C25C",
"=. c #DCD45F",
"-. c #D5C366",
";. c #DBC26C",
":. c #D8D069",
">. c #DDCD73",
",. c #D9C876",
"<. c #DDC27A",
"1. c #DDD27D",
"2. c #E3CA65",
"3. c #E8C172",
"4. c #E4C07C",
"5. c #E3CD7D",
"6. c #F3C174",
"7. c #E3DA75",
"8. c #E4DC7C",
"9. c #D9B681",
"0. c #DABB86",
"q. c #D4B78B",
"w. c #DDBD8C",
"e. c #D5BF92",
"r. c #E2BD83",
"t. c #E4BE8C",
"y. c #E5BE90",
"u. c #DCC48B",
"i. c #D9CA8D",
"p. c #DDD88A",
"a. c #DEC493",
"s. c #D9C79B",
"d. c #DFCC9F",
"f. c #D7D492",
"g. c #E4C185",
"h. c #EBC383",
"j. c #E3CC83",
"k. c #E5C28A",
"l. c #EAC68D",
"z. c #E6C98C",
"x. c #EDC98D",
"c. c #F2C78E",
"v. c #F1CC8E",
"b. c #E1DE8A",
"n. c #E3C494",
"m. c #E9C692",
"M. c #E2CB95",
"N. c #ECCA93",
"B. c #E4C99C",
"V. c #ECCD9A",
"C. c #F2CE94",
"Z. c #F1CD9B",
"A. c #E7D898",
"S. c #F1D29D",
"D. c #DBCAA3",
"F. c #DDD2A2",
"G. c #E6CFA4",
"H. c #E0CFAA",
"J. c #E4D5A5",
"K. c #EDD4A4",
"L. c #E5D7AA",
"P. c #EDD5AC",
"I. c #EDDAAC",
"U. c #F0D4A4",
"Y. c #F1D6AB",
"T. c #F0D9AE",
"R. c #E1CFB6",
"E. c #E1D2B2",
"W. c #E8DBB3",
"Q. c #EBDBB4",
"!. c #EEDCBA",
"~. c #F1DBB3",
"^. c #F1DCBB",
"/. c #EAE4A9",
"(. c #EBE4B3",
"). c #E6E4BA",
"_. c #EBE4BB",
"`. c #F1E0BB",
"'. c #DFDCCA",
"]. c #E7DEC7",
"[. c #EEDEC3",
"{. c #F0DEC1",
"}. c #F2DFC9",
"|. c #E9E4C7",
" X c #EDECCC",
".X c #F2E1C4",
"XX c #F0E8C1",
"oX c #F2E2CA",
"OX c #E4E1D1",
"+X c #EEE5D1",
"@X c #EFECD3",
"#X c #E5E7DE",
"$X c #E9E5DA",
"%X c #E6E8DB",
"&X c #EDEADE",
"*X c #F2E6D3",
"=X c #F3EAD5",
"-X c #F2E5DB",
";X c #F2EBDB",
":X c #F2F0D4",
">X c #E5E5E5",
",X c #E9E6E4",
"<X c #E5E8E3",
"1X c #EAEAE6",
"2X c #E6E5E9",
"3X c #E9E4E9",
"4X c #E6E9E9",
"5X c #EBEBEB",
"6X c #F1ECE2",
"7X c #F0EEE8",
"8X c #EEF1E6",
"9X c #EBF2EC",
"0X c #F1F3E5",
"qX c #F2F1EC",
"wX c #EFEEF0",
"eX c #F3EFF2",
"rX c #F3F3F3",
"tX c #F5F5F5",
/* pixels */
"4X5X4X4X4X5X5X4X4X4X5X5X4X4X4X5X7X4X4X4X5X4X4X4X5X5X4X4X4X5X5X4X",
"4X4X4XtXtX4X4X4XqX9X3X].B.L._.@X X(.A.F.$X,XqXrX4X4X4XtXtX4X4X5X",
"4X4X4X5X5X4X4X4X$XP.' #.` ' j.M.M.<.T Z M D D.&X4X4X4X5X5X4X4X5X",
"wXtX5X4X>XqXrXQ.M N v . & & > > t i H ! p @ 3 Z :X9X0X4X>XwXtX4X",
"rXtX5X4X>X6X+.m n % & - & & & % = t H _ r.g.D b L A.eX#X4X5XtX4X",
"4X4X4XwX&X7 1 X d > ; & & & > @.k d H ..g.k.t.&.K *.f.7X9X4X4X5X",
"4X4X4X5X^ 1 t G f 1 < < < = % &.k a Q &.l.r.@...W J :.(.9X4X4X5X",
"4X4X4XB.1 t _ ! G f x _ 0.I.~.Q.U.Z.g.g.k.@...Q W z -.7. X4X4X4X",
"5X0X'.y N g.&.$.^ $.G.&X;X+X.X!.Q.P.V.m.k...Q Y z a r -.b.&XrX4X",
"5X9Xk.4 X.V.l.&.&.n.6X6X;X*X+X}.[.!.P.K.m.r.S k u r * C 7.(.rX,X",
"4X,Xn x I.S.V.l.k.~.;X6X;X-Xq D.w `.!.I.K.V.k u * . + . 2.1.%X5X",
"4Xs.s h.P.Y.Y.U.V.U.!.oX=XI.- F.[ 0.[.^.Q.P.R 6 O . . $ : 2.|.5X",
"4X( G g.m.V.V.K.U.N.Z.T..XQ.- F.o. .h 5 5   o . $ # $ $ = *.i.4X",
"1X$.L @.@.&.g.l.N.v.x.V.P._.z.E.e.&.S u + $ $ $ $ $ % % = V ,.4X",
"$X%.P Q ^ ^ _ ..X.R N.x.C.U.`.+X+Xq.g O . % % * * * * * : M ;.,X",
"OX<.#.x x x F H c S r.V.v.x.U.~..X=X XR.S i i i t i i i i M P 6X",
"OX5.%.t : r > : * * % o @.k.x.V.P.{.-X;X@XJ.^ W H C C C F M L &X",
"&XA.M.r % % $ $ $ $ $ $ O p 9 4.l.Y.^.oX;X1XE.@.} ^ Q Q Q M ! ,X",
"5X/.Q.a $ # # # $ $ $ * u ~ t.l.9 @.Z.~.oX;X;Xn.r.&.X.....M ) 4X",
"4X_.XXC $ # $ $ + +.u.a.d.G.0.n.l 8 4.S.Y.oX*XV.m.k.g.&.X.d | 4X",
"4X|./.A $ $ $ % + v.Y.^..X[.9.B.T 7 g.N.Z.U.~.n.V.V.m.k.%.1 ].5X",
">X<Xp.5.O % % e u k h.S.~.oX_.E.] +.U.Z.c.N.0.r.k.n.N.V., k 4XwX",
"5XrXW.-.p e r a z H I 6.C.~.{.oX.X^.~.U.Z.g.Y  .@.0.k._ 1 H.rX4X",
"5X0X$X/ Z u g z W o.z I #.v.Y.^..X.X^.T.n.Y S E  .O.g.n x &XrX4X",
"4X4X4X).b v S W { 9.a.y.^ 6 h.K.~.`.d.q 6 u j Y ~  .d ; |.4X4X5X",
"4X4X4XrXi.3 J { o.w.n.w.q.O.~ $.l 7 6 6 6 6 u z Y y 1 J.qX4X4X5X",
"4X>X4XtX0X| B ( 0.n.n.w.9.} E F a 0 7 6 6 @ 0 l , ; n.qXrX4X>X4X",
"5XtX5X>X<XqXJ.K >.u.a.0.o.{ Y g g 0 7 6 7 u 8 N , L.qX<X>X5XtX4X",
"5XtX5X4X3XqX9X;X,.=.5.A.o.[ E U j 0 0 0 3.M 4 J ;X5XeX2X#X5XtX4X",
"4X4X4XrXrX4X4X4X8X).b.8.8.8.>.;.` ` P V M X.E.1X4X4X4XrXrX4X4X4X",
"4X4X4XtXtX4X4X4XrXrX>X$X).p.1.>.;.;.X.I.%X<XrXrX4X4X4XtXtX4X4X5X",
"5X5X5X4X4X5X5X4X4X4X5X5X4X4X4X5X5X4X4X4X5X5X4X4X4X5X5X4X4X5X5X4X"
};
