/* XPM */
static char *_00d905af52543fcc294489dfc714e40fa1K6YKolTtevnar[] = {
/* columns rows colors chars-per-pixel */
"32 32 106 2 ",
"   c #008443",
".  c #008346",
"X  c #008545",
"o  c #058446",
"O  c #088647",
"+  c #07834A",
"@  c #07874A",
"#  c #0C8348",
"$  c #08874B",
"%  c #0E854A",
"&  c #0F824C",
"*  c #0B874C",
"=  c #0C874E",
"-  c #0B884B",
";  c #0A884D",
":  c #0F894F",
">  c #10834C",
",  c #10864C",
"<  c #17874E",
"1  c #11884C",
"2  c #14894F",
"3  c #0E8B51",
"4  c #148552",
"5  c #138B52",
"6  c #148A52",
"7  c #138C52",
"8  c #178B55",
"9  c #198B53",
"0  c #188C53",
"q  c #198856",
"w  c #188E55",
"e  c #1D8E57",
"r  c #208E5B",
"t  c #278E5A",
"y  c #25915E",
"u  c #2D9163",
"i  c #319363",
"p  c #359468",
"a  c #389368",
"s  c #3C956A",
"d  c #3C976D",
"f  c #40976E",
"g  c #449A73",
"h  c #429C73",
"j  c #4B9F75",
"k  c #4F9F77",
"l  c #4A9C79",
"z  c #559F7B",
"x  c #559F7D",
"c  c #53A17B",
"v  c #53A17C",
"b  c #57A27F",
"n  c #58A180",
"m  c #5CA786",
"M  c #6BAC8E",
"N  c #70AE8E",
"B  c #7CB093",
"V  c #7AB097",
"C  c #7CB198",
"Z  c #81B09A",
"A  c #82B39E",
"S  c #84B29C",
"D  c #88B49E",
"F  c #8AB5A0",
"G  c #8CB5A3",
"H  c #96B7A6",
"J  c #98B7A6",
"K  c #91B8A6",
"L  c #95B9A7",
"P  c #98B8A7",
"I  c #96BBA9",
"U  c #98BAAA",
"Y  c #9DBCAB",
"T  c #9DBBAC",
"R  c #A0BEAF",
"E  c #A2BEB3",
"W  c #A9BFB4",
"Q  c #9FC1B0",
"!  c #A6C0B5",
"~  c #ABC1B7",
"^  c #AFC4B7",
"/  c #ABC3B8",
"(  c #ACC1B8",
")  c #B0C4BC",
"_  c #B6C6BE",
"`  c #B8C4BF",
"'  c #B6CBBE",
"]  c #B6C6C0",
"[  c #BAC6C1",
"{  c #BDC7C3",
"}  c #B7C8C2",
"|  c #BAC8C0",
" . c #BFC9C3",
".. c #BEC8C4",
"X. c #C3CAC7",
"o. c #C5CBC7",
"O. c #C6CBC9",
"+. c #C7CCC9",
"@. c #CBCBCB",
"#. c #CCCBCB",
"$. c #CBCCCB",
"%. c #CCCCCA",
"&. c #CBCBCC",
"*. c #CCCBCC",
"=. c #CBCCCC",
"-. c gray80",
/* pixels */
"w 0 0 0 0 0 9 0 w w w w w w w w w w w w w w w w w w w w w w w w ",
"X X X X X X X X X X X X X X X X X X X X X X X X X X X X X X X X ",
"X X X X X X X X X X X X X X X X X X X X X X X X X X X X X X X X ",
"X X X X 5 ! ! ! ! ! ! ! ! ! ! ! ! ! ! ! ! ! ! ! ! ! ! Q @ X X X ",
"X X X X 6 #.-.-.-.-.-.-.-.-.-.-.-.-.-.-.-.-.-.-.-.-.-.O.$ X X X ",
"X X X X 7 @.=.-.-.-.-.-.-.-.-.-.-.-.-.-.-.-.-.-.-.-.-.+.$ X X X ",
"X X X X 7 @.-.-.-.-.-.-.-.-.-.-.-.-.-.-.-.-.-.-.-.-.-.+.$ X X X ",
"X X X X 5 @.-.-.-.-.-.-.-.-.-.-.-.-.-.-.-.-.-.-.-.-.-.+.$ X X ; ",
"X X X X 7 $.-.-.-.-.-.-.-.-.-.-.-.=.E s a Y $.-.-.-.-.+.$ X X - ",
"X X X X 5 #.-.-.-.-.-.-.-.-.-.-.-.Z X X X X A $.-.-.-.+.$ X X - ",
"X X X X 7 @.-.-.-.-.-.-.-.-.-.-.$.b   X X X d %.-.-.-.+.$ X X - ",
"X X X X 5 @.-.-.-.-.-.-.-.-.-.-.-.( $ X X * _ @.-.-.-.O.$ X X X ",
"X X X X 7 @.-.-.-.$.+.O.o.o.X.o.O.O.O.} ..@.$.-.-.-.-.+.$ X X X ",
"X X X X 7 @.-.-.O.= X X X X . X X X X = E #.%.-.-.-.-.+.$ X X X ",
"X X X X 7 @.-.@.u X X 6 2 . X X X X X X X D #.-.-.-.-.+.$ X X X ",
"X X X X 7 @.$.I . X M &.@.e X X X X X X X o / $.-.-.-.+.$ X X X ",
"X X X X 7 $.{ X . q O.&.G X X X X X X * X X o [ =.=.=.+.$ X X X ",
"X X X X 5 @.p X X { $.&.y X X X X X $ ] _ : X X F L L K @ X X X ",
"X X X X 5 @.o.g ^ @.@.G . X X X X X x #.-.{ $ X X . X X X X X X ",
"X X X X 5 #.%.$.-.-.@.e X X X X X : X.=.-.=.O.n < & > = X X X X ",
"X X X X 5 @.=.*.-.-.) X X X X X X j @.*.=.-.-.-.-.-.-.U X X X X ",
"X X X X 5 #.%.-.-.-.v X X X X X X i @.*.-.-.-.-.-.-.-.U . X X X ",
"X X X X 5 @.$.-.-.$.q X X 3 X X X X S @.-.-.-.-.-.-.-.I X X X X ",
"X X X X 5 @.$.-.-.@.; X X C Z X X X 8 o.@.-.-.-.-.-.-.H X X X X ",
"X X X O m @.%.-.-.' X X X ~ =.k X X X c -.-.-.-.-.-.-.H X X X X ",
"X : U .. . . . .} f X X 5 $.-.O.r X X @ _ -.-.-.-.-.-.H X X X X ",
"= | B X X X X X X X X X z @.%.$.W . X X t -.-.-.-.-.-.H X X X X ",
"T { q 1 , = % % % # % u ` -.-.-.-.V   X X F =.-.-.-.-.H X X X X ",
"[ { { [ { $.-.-.@.@.@.@.#.-.-.-.-.$.h X X : @.-.-.-.-.H X X X X ",
". . X X 5 @.-.-.-.-.-.-.-.-.-.-.-.-.X.+ X X l *.-.-.-.J X X X X ",
"X X X X 1 @.-.-.-.-.-.-.-.-.-.-.-.-.%.R X X X  .$.-.-.P . X X X ",
"X X X X 5 @.-.-.-.-.-.-.-.-.-.-.-.-.-.$.N X X 4 @.-.-.U X X X X "
};
