/* XPM */
static char *_a61791b13e648bdb01f5a0436ae1a357uydw54u6KQPuOes[] = {
/* columns rows colors chars-per-pixel */
"32 32 17 1 ",
"  c gray55",
". c #939393",
"X c gray59",
"o c #989898",
"O c #9D9D9D",
"+ c #9F9FA0",
"@ c #A09FA0",
"# c #A2A2A2",
"$ c #A7A7A7",
"% c #A8A7A8",
"& c #AAAAAA",
"* c #ABABAC",
"= c gray68",
"- c gray69",
"; c #B3B3B4",
": c gray71",
"> c gray72",
/* pixels */
"$&:$=&--#-===&>$&-&-$=-$==-=$:=&",
"==&======&====&==&=&==&===&==&==",
"&&=&=&==&==&=&=&==&=&==&====&=&&",
"==&=&&&&=&&=&=&==&=&=&&=&&&&=&==",
"=&&=&&&&=&&&&=$=&&=&=&&=&&&&=&&=",
"#$:#=$==o:&&&$>#$-$=O&-O=$=&O>&$",
"==#=$=$$>#&*&=O-=#=$-&$-$&$&-O&=",
"&&&&&&&&&&&&&&&&&&&&&&&&&&&&&&&&",
"$&&$&$&&#&&&&&=$&&$&$$&$&$&$$=&&",
"$$&$$$&&#&&$&$=$$&$&$&&$&&&&$=&$",
"$$&#$$&$O=$$$$=#$&$&#&&#&$&$#=$$",
"=&o-#&##>O$&$&.=&o&#-$O;#&#$:X&&",
"#$=#&$&&o=$$$#-##&$&#$&@&$&$O=$$",
"$$$$$$$$$$$$$$$$$$$$$$$$$$$$$$$$",
"&$#$$$#$%#$$$$#$$#$#$$#$#$#$&#$$",
"#$$#$#$$O$$$$#&#$$#$#$$#$$$##$$#",
"$$#$#$##$##$#$O$$#$#$##$#$##$O$#",
"oO-o$O&& =###O>X#=O&X$&X&#&#.:#O",
"$#O$#$##&####$O$#O$#$#O$####&O#$",
"$#O$#$##&O###$o$#O$#$#O$O###&O##",
"O#$O####o$####$O#$#$O#$O####O$##",
"##O###OO$O#@##O##O####O#####$O##",
"OO&o#O##.&##OO=oO%O$o#$o#O$#X&OO",
"$#X$O#OO-o###$.&#X#o&Oo&O#O#&.#$",
"OO#OOO##o#OOOO#OO#O+O##O#O#OO#OO",
"OO#oOO##X#OOOO$oO#O#oO#o#O#Oo#OO",
"#Oo#OOOO$oOOOOo#Oo@O#OO#OOOO#oO#",
"OOOOOOOOOOOOOOoOOOOOOOOOOOOOOOOO",
"OOoOOOOOOOOOOOoOOOOOOOOOOOOOOoOO",
"oo#oOoOOX#OOOo#ooOoOoOOoOOOOo#Oo",
"ooOooOOOoOoOOOOooOOOOoOoOooooOOO",
"OOX#oOoo$XoOOO.#OXOo#oX#oOoo#.OO"
};
