/* XPM */
static char *cbd9248ea64745c894cd519593ca73f0e7sZkqoph5zKLIPY[] = {
/* columns rows colors chars-per-pixel */
"32 32 122 2 ",
"   c black",
".  c #191004",
"X  c #2A1B07",
"o  c #773972",
"O  c #7C507E",
"+  c #B24618",
"@  c #B34B1B",
"#  c #B44C19",
"$  c #B24A1C",
"%  c #BC5F1C",
"&  c #A86D1D",
"*  c #99403E",
"=  c #A94526",
"-  c #A6432B",
";  c #A4432E",
":  c #AB4A28",
">  c #B34C20",
",  c #B5542B",
"<  c #B5572E",
"1  c #A75A3D",
"2  c #B65B34",
"3  c #B75E39",
"4  c #BC6224",
"5  c #BB7920",
"6  c #BE7B21",
"7  c #B7613D",
"8  c #B8633F",
"9  c #BF7C31",
"0  c #BA7936",
"q  c #B97838",
"w  c #C87F23",
"e  c #C17D2D",
"r  c #8E3D4F",
"t  c #8D3D51",
"y  c #8B3E55",
"u  c #863B5C",
"i  c #9E4F4E",
"p  c #9F5250",
"a  c #AB5642",
"s  c #BA6E4F",
"d  c #AD7145",
"f  c #A46B50",
"g  c #BB7456",
"h  c #BC7A5B",
"j  c #865774",
"k  c #815178",
"l  c #815579",
"z  c #8F6174",
"x  c #BD7C61",
"c  c #C78123",
"v  c #CA8323",
"b  c #CA872B",
"n  c #CA8931",
"m  c #CA8B35",
"M  c #C2833A",
"N  c #BE866F",
"B  c #CA9145",
"V  c #CA944C",
"C  c #CA9B5A",
"Z  c #CBA675",
"A  c #C9A47A",
"S  c #68348A",
"D  c #5334AF",
"F  c #5639AE",
"G  c #4E2EB2",
"H  c #4C2EB5",
"J  c #472CBD",
"K  c #4B2DB8",
"L  c #4B32BA",
"P  c #4D30B8",
"I  c #4D34B8",
"U  c #5136B3",
"Y  c #5036B7",
"T  c #784F85",
"R  c #6B4695",
"E  c #6E4891",
"W  c #6140A0",
"Q  c #6142A5",
"!  c #402BC8",
"~  c #412CC8",
"^  c #442FC8",
"/  c #4733C8",
"(  c #4F3CC8",
")  c #513FC8",
"_  c #5442C8",
"`  c #5644C9",
"'  c #5D4CC9",
"]  c #6250C5",
"[  c #6252C9",
"{  c #7E72C9",
"}  c #895784",
"|  c #847ACA",
" . c #BEB3BD",
".. c #C19683",
"X. c #C39E8E",
"o. c #CBAE87",
"O. c #C4A395",
"+. c #CBB496",
"@. c #C7B5AE",
"#. c #C8B6B0",
"$. c #C9BBB5",
"%. c #C7BFBF",
"&. c #C9BFBB",
"*. c #CCC0AF",
"=. c #CCC3B7",
"-. c #CCC4B9",
";. c #CBC5BC",
":. c #938BCA",
">. c #9992CB",
",. c #B4B1CB",
"<. c #BAB8CB",
"1. c #BFBDCB",
"2. c #CBC5C3",
"3. c #CCC7C0",
"4. c #CBC6C4",
"5. c #CCC8C2",
"6. c #CCC9C4",
"7. c #C4C3CB",
"8. c #C7C6CC",
"9. c #CBC9C8",
"0. c #C9C8CC",
"q. c gray80",
/* pixels */
"q.q.q.q.q.q.q.q.q.q.q.q.q.q.q.q.q.q.q.q.q.q.q.q.q.q.q.q.q.q.q.q.",
"2.......q.q.8.>.:.:.:.:.:.:.:.:.:.:.:.:.:.:.:.:.>.0.q.q.q.q.q.q.",
"$.+ + + q.q.1.( ! ! ! ! ! ! ! ! ! ! ! ! ! ! ! ! ) 7.q.q.q.q.q.q.",
"9.#.#.#.2 2 a P ! ! ! ! ! ! ! ! ! ! ! ! ! ! ! ! ~ _ ` ` q.q.q.q.",
"q.q.q.q.+ + - H ! ! ! ! ! ! ! ! ! ! ! ! ! ! ! ! ! ! ! ! q.q.q.q.",
"<.! ! ! ! ! K - + + + + ; ! ! ! v v v v v v v v m 5.q.q.q.q.q.q.",
"<.! ! ! ! ! K - + + + + ; ! ! ! v v v 6 5 6 c v m 5.q.q.q.q.q.q.",
"<.! ! ! ! ! K - + + + + ; ! ! ! v v v .   X & v m 5.q.q.q.q.q.q.",
"<.! ! ! ! ! K - + + + + ; ! ! ! v v v .   X & v m 5.q.q.q.q.q.q.",
"<.! ! ! ! ! ! ! ! ! ! ! ! ! ! ! v v v .   X & v v v v v q.q.q.q.",
"<.! ! ! ! ! ! ! ! ! ! ! ! ! ! ! v v v .   X & v v v v v q.q.q.q.",
"q.q.q.q.! ! ! ! ! ! ! ! U v v v v v v v v v v v m 5.q.q.q.q.q.q.",
"q.q.q.q.[ [ ] Q W W W W E v v v v v v v v b B V C 6.q.q.q.q.q.q.",
"q.q.q.q.q.q.;.m v v v v v v v v v v v v v B *.q.q.q.q.q.q.q.q.q.",
"q.q.q.q.x x h 4 % 1 O T k % % % % % % A o.+.3.q.q.q.q.q.q.q.q.q.",
"q.q.q.q.+ + + + + r J ! G + + + + + + $.q.q.q.q.q.q.q.q.q.q.q.q.",
"q.q.q.q.+ + + + + - t y u S S S + + + s g N &.q.q.q.q.q.q.q.q.q.",
"q.q.q.q.+ + + + + + + + ; ! ! ! + + + + + 7 @.q.q.q.q.q.q.q.q.q.",
"q.q.q.q.+ + + + + r J ! ! ! ! ! + + + + + + + + # w v v v v v =.",
"q.q.q.q.- - - - - y D I P ! ! ! - - - @ # $ = - : w v v v v v =.",
"q.q.q.q.! ! ! ! ! R e v q ! ! ! ! ! ! q v d F ! Y e v v v v v =.",
"q.q.q.q.! ! ! ! ! R e v 0 L L L ! ! ! d 9 f F ! Y M n n n n n -.",
"q.q.q.q.! ! ! ! ! R e v v v v v ! ! ! ! ! ! ! ! ) 7.q.q.q.q.q.q.",
"q.q.q.q.! ! ! ! ! R e v v v v v ! ! ! ! ! ~ ^ / _ 7.q.q.q.q.q.q.",
"q.q.q.q.! ! ! ! ! R e v v v v v ! ! ! ! ! ' ,.q.q.q.q.q.q.q.q.q.",
"q.q.q.q.| | { / ! F l j z Z Z Z o o o o o }  .q.q.q.q.q.q.q.q.q.",
"q.q.q.q.q.q.1.( ! ! ! ! ) q.q.q.+ + + + + 7 @.q.q.q.q.q.q.q.q.q.",
"q.q.q.q.q.q.%.i * * * * p q.q.q.+ + + + + > 3 8 s 4.q.q.q.q.q.q.",
"q.q.q.q.q.q.&., + + + + < q.q.q.+ + + + + + + + < 2.q.q.q.q.q.q.",
"q.q.q.q.q.q.&., + + + + > g g g X.X.X.X.X.X.X.X.O.9.q.q.q.q.q.q.",
"q.q.q.q.q.q.&., + + + + + + + + q.q.q.q.q.q.q.q.q.q.q.q.q.q.q.q.",
"q.q.q.q.q.q.q.q.q.q.q.q.q.q.q.q.q.q.q.q.q.q.q.q.q.q.q.q.q.q.q.q."
};
