/* XPM */
static char *_63648a997be419d94fe84a11f46bded7IVWQBNgeM1ERYHe[] = {
/* columns rows colors chars-per-pixel */
"32 32 192 2 ",
"   c #161614",
".  c #1F1F1C",
"X  c #24251E",
"o  c #252826",
"O  c #2D2B26",
"+  c #2C2C2A",
"@  c #332E24",
"#  c #36342C",
"$  c #3A352C",
"%  c #3B3731",
"&  c #373834",
"*  c #3C3B34",
"=  c #3E3D3C",
"-  c #423B2E",
";  c #423D34",
":  c #433E3A",
">  c #4A4435",
",  c #484737",
"<  c #45423B",
"1  c #4B443B",
"2  c #4D493F",
"3  c #534933",
"4  c #524A3D",
"5  c #5A4E3D",
"6  c #58523D",
"7  c #63563A",
"8  c #444442",
"9  c #484743",
"0  c #4C4B44",
"q  c #4C4D49",
"w  c #524D43",
"e  c #584F44",
"r  c #534E4B",
"t  c #4E534B",
"y  c #545046",
"u  c #5D5344",
"i  c #55534C",
"p  c #5A544C",
"a  c #5E594C",
"s  c #534E51",
"d  c #565552",
"f  c #5C5652",
"g  c #5D5A53",
"h  c #5C5C59",
"j  c #635946",
"k  c #635B4C",
"l  c #6A5D4B",
"z  c #645D53",
"x  c #6A5952",
"c  c #625E5A",
"v  c #6F634C",
"b  c #746A4B",
"n  c #656155",
"m  c #6B6354",
"M  c #65635C",
"N  c #69655B",
"B  c #6D6A5C",
"V  c #736654",
"C  c #746A55",
"Z  c #786C52",
"A  c #71665A",
"S  c #746C5D",
"D  c #796E5B",
"F  c #7C7254",
"G  c #75725E",
"H  c #7C735C",
"J  c #7F795C",
"K  c #625E64",
"L  c #5E6361",
"P  c #646461",
"I  c #696661",
"U  c #676962",
"Y  c #6C6B64",
"T  c #6C6B6A",
"R  c #726D63",
"E  c #796F63",
"W  c #716F6A",
"Q  c #6C7066",
"!  c #6F716B",
"~  c #757164",
"^  c #7A7465",
"/  c #74736C",
"(  c #7C756B",
")  c #7C7A6B",
"_  c #6F6F70",
"`  c #6F7276",
"'  c #737473",
"]  c #7B7673",
"[  c #767873",
"{  c #7C7B73",
"}  c #737578",
"|  c #767A7A",
" . c #7B7D7B",
".. c #846D40",
"X. c #826C52",
"o. c #877A5C",
"O. c #937650",
"+. c #847B64",
"@. c #8D7F60",
"#. c #857768",
"$. c #837C6C",
"%. c #837E74",
"&. c #827E7B",
"*. c #7E817E",
"=. c #99855A",
"-. c #8D8365",
";. c #8A826B",
":. c #8B856C",
">. c #988A64",
",. c #93836B",
"<. c #948A6C",
"1. c #848175",
"2. c #8C8572",
"3. c #888A77",
"4. c #84837D",
"5. c #8A857C",
"6. c #87887F",
"7. c #8D8A7C",
"8. c #928A72",
"9. c #9C8F73",
"0. c #938B7C",
"q. c #9C9172",
"w. c #94917D",
"e. c #99937D",
"r. c #9D987F",
"t. c #A59A78",
"y. c #7F7F80",
"u. c #7E8381",
"i. c #848483",
"p. c #8A8582",
"a. c #868985",
"s. c #8B8B84",
"d. c #848589",
"f. c #868B8B",
"g. c #8B8C8B",
"h. c #928D83",
"j. c #8E928C",
"k. c #949384",
"l. c #9B9283",
"z. c #9F9A87",
"x. c #93948B",
"c. c #9A958A",
"v. c #96998B",
"b. c #9C9A8A",
"n. c #8B8E90",
"m. c #8F9091",
"M. c #939594",
"N. c #989790",
"B. c #959A95",
"V. c #9C9C94",
"C. c #959698",
"Z. c #969A9A",
"A. c #9C9C9A",
"S. c #A39C83",
"D. c #A89F89",
"F. c #A19C97",
"G. c #9EA093",
"H. c #9EA19B",
"J. c #A9A58D",
"K. c #A4A293",
"L. c #ABAB94",
"P. c #A6A698",
"I. c #A3A49C",
"U. c #ACAB9D",
"Y. c #B2AA9B",
"T. c #B8B196",
"R. c #9E9EA0",
"E. c #9EA2A3",
"W. c #A3A5A4",
"Q. c #AAA7A0",
"!. c #A6A9A5",
"~. c #ACACA4",
"^. c #A3A6A8",
"/. c #A6ACAC",
"(. c #ABADAD",
"). c #B3AFA6",
"_. c #AEB3AE",
"`. c #B9B5A4",
"'. c #B4B5AB",
"]. c #AAAEB1",
"[. c #ADB2B2",
"{. c #B1B4B4",
"}. c #B2B8B2",
"|. c #BBBEB2",
" X c #B6B8B8",
".X c #C3BEB3",
"XX c #BEC4BD",
"oX c #C4C7BB",
"OX c #BABFC2",
"+X c #BEC2C4",
"@X c #C5CBC2",
"#X c #C3C8CB",
/* pixels */
"z < r T h & # h c n 2 h M !.~.'.I./ !.M.d X M.A.G.$ Y 4 , U m g ",
"|.| ].[.K ^.i M.h.+.=.v y.4.'.(.!.U v.4.{ +  .6.{ 0 2.$.2 < 2 d ",
"b.} [.v.W R.~ / M j j V W 8 ~.I.U.9 f n B . Q *./ r :.7.^ p M i.",
"z E.H.J.g.^.p.Q.| /.5.M.f.d.M.j.V.g.| g ; & v.k.v.a { i z p i ' ",
"s Z.!.D.W.].S ].[.W.7.W.^.M.T  .f.g.g  .A.+ v.e.w.S ~ 3.] I.V.K.",
"{ A.c.~.5.p.M /./.R.H.~.^.4.( &.| s.m Y i.9 b.8.A.$.1 n p $.$.2.",
"Y { #.l.l m g  Xm.W.N.Q.Z.5. .i.' %.;.c.v.% c.0.k.w.p &.g :.;.o.",
"T i.{ R Y { ] j.! c / / !.p.i.y.| M B B / o 6.4.x.7.0 Y 0 z ; 6 ",
"[ $.2.$.s.s.A.( Y g.%.T (.0.i.i.^.} B.h M._ A.%.c P } s.' < ; 9 ",
"8 w ] [ | i.i.x P k.Y M.g a 4.T Y ' C.d M.(.x.$.e.4.5.] / i I.A.",
"h.k.' f.P  .4.k.M A.V.n.T +.k.x.] W M M ] %.p n G C R S w 0 $.2.",
"~ ^ h g./ h 5.z.$.' I Z.N.y 5.I W Y W / N r O 8 4.U U 1.4.d P B ",
"9.x.i.A.h x.A.V.^.d.P M.p.: M. .Z.R M.Z.1.p M 9 ~.I.v.I.I.M x.c.",
"I.'.K.0.M. .h.(.^.{ W H.v.E + =   P.+XV.[ % 6 $ 2.k.3.a D 4 J F ",
"OXF.h./ t |.2.Y.n.f.[ x.5.O r k 3 U.`.D.%.f j 4 x.2.@.q.$ z z i ",
"s.] w g y ) ^ 1.T d.U M : d ' c f U.>.S.8.Y A y ) ; m ^ g N m n ",
"t.$.%.7.0.Y $.7.M 4.T i.= E./.^.H.x.o.V.K.g / ~ x.U z C Z +.^ ( ",
"<.o $ 1.R [ B ~ 2 _.A.g.< c.!.W.!.w $ a S.= d Y %.r 5 C u j 3 ; ",
"i.i.x.k.H ,.H H ..~ e.9 i Y M & % T Y q & 9 ' h 9 r q 0 , < r  .",
"6.R 4.{ F S ;.+.;.R f *.u.T ' &.e 1.a.i / p.s.M.. ; , 1 p ' [ i ",
"B / y n k M / M. .Z.% !.Z.7.7.5.z B.x.p R /  .6.* n w < S Q ~ B ",
"U._.B e.D..XW.|.~.I.g C.0.l.r.-.&.H.0.N a ^ d * g u. .P $ w 0 % ",
").}.) y z ; p v L ].d I.+.t.~.| n H.l.l D ~ 3 ; A.v./ B.d k u p ",
"XX(.1.g | P =.-.I.( i U.>.o.`.e.w 7.:.C +.,.$.#.A.v.{ M k g 1 p ",
"}.[.j.i M p ^ Q L.T.n K.-.o.S.<.N H H l n u m k i.G ~ B 4 M ~ R ",
"[.^.4.g p.7.z }.L.J.2.R u m k 7 y m F 7 @ , 4 - ! g N c y C q.$.",
"R.A.s.k +.D 6 `.'.U.e.3 #._ V u d.g.] g a.p.T M / ' P ! p e.r.b ",
"v.x.s.u A S a L.oXJ.J.-.7 v X.N n.i.&.= I.p.M.M.x.j.^ k.a 0.S l ",
"R 0 p.OXd.] H.|.XX@XoX+.k u -./ i.&.]  .H.1.) v.1.v.$.;.m n h T ",
"s.A.!.+X+X{.V.K.1.k.I.7.5.C $.H ) ( U (.W.8.p | E.M.5.$.^ G 6.) ",
"h.(.[.#X}.#Xh.W.B.~ }.[.{.%.8.;.8.A D 5./ B g ` f.Y u y %./ R z ",
"i V.c.K.V.A.T Z.@XY.oX|.I.1 r.~ C O.X.9., v.G g.) 2.g R s.( 9 *."
};
