/* XPM */
static char *result[] = {
/* columns rows colors chars-per-pixel */
"32 32 11 1 ",
"  c #0A6600",
". c #B31200",
"X c #FF3118",
"o c #80460D",
"O c #C66300",
"+ c #109400",
"@ c #8CD600",
"# c #FF945A",
"$ c #FFAC80",
"% c gray80",
"& c white",
/* pixels */
"+@+@+@+@+@+@+@+@+@+@+@+@+@$$+@+ ",
"@+@+@+@+@+@+@+XXXXXX@+@+@+$#$$$@",
"+@+@+@+@+@XXXXX.X%&XX@+@+@#$##$$",
"@+@+@+@+XXXXX..X%.X&X+@+@+$##$#$",
"+@+@+@+XX........XXXXXXXXXO#$#$$",
"@+@+@+X.......XXX..........o###$",
"+@+@+@X...................Ooooo$",
"@+@+@+.X....oooO#%o##o%oO&OooooO",
"+@+@+@+ooOoooO##$&O#$O&O&OOooooO",
"@+@+@+ooO$OoO##$#$$##$$$$OooooO+",
"+@+@+@oO$#Oo##$$$###$##$$$ooooO@",
"@+@+@+oO##$O#$$$OoOO####$$$oooO+",
"+@+@+@ooO#$$O#$OooooOO#$#$$oooO@",
"@+@+@+@oOO$$$$##OooooooOOOOooO@+",
"+@+@+@+ooO#$$$$$#OOOOOO#$oooO@+@",
"@+@+@+@+o##############$ooooO+@+",
"+@+@+@+@+OOOX.ooOOOO.XOooooO+@+@",
"@+@+@+@OOoooOX.ooOOOO.XOooO+@+@+",
"+@+@+OOooooooOX.OOOOOO.XoO+@+@+@",
"@+@+OoOooooooO.X.......Xo+@+@+@+",
"+@+OoooOooooOO..XX.....XX@+@+@+@",
"@+OOoooooOOOO..X$&XXXXX$@+@+@+@+",
"+OOooooOOO....XX#$XXXXX#$@+@+@O@",
"@#$##OOO.......X..XXXXX....+@Oo+",
"+##$##O.......X.XXXXXXXXX.X.oOo@",
"@$###$oo.........X.XXXXX...oOoo+",
"+#$##ooOo.........X.XX.....OoOo@",
"@$$$&oOoO.......XX.......X.oOOo+",
"+@+@ooOOo....XXXX@XXXXXXXXooOo+@",
"@+@+oOOoOXXXX+@+@+@+@+@+@XoOo+@+",
"+@+@ooo@+@+@+@+@+@+@+@+@+@+@+@+@",
"@+@+oo@+@+@+@+@+@+@+@+@+@+@+@+@+"
};
