/* XPM */
static char *wall1705999044[] = {
/* columns rows colors chars-per-pixel */
"32 32 6 1 ",
"  c black",
". c gray20",
"X c #9C4A00",
"o c #CC6A14",
"O c #E5968A",
"+ c #FFCEC6",
/* pixels */
"+OOOOOOOOOOOOOOOOOOo.oOOOOOOOOO+",
"OOO++++++++++++++oo. .oo++++o..O",
"+O++XoXoXoXoXoXoX+o. .o+XoXo+o..",
"+O+XoXoXoXoXoXoXoX+. .+XoXoXX+ .",
"+O+oXoXoXoXoXXXXXXo. .+oXXXXXo  ",
"+O+XoXoXoXXXXXXXXXo. .+XoXXXXo  ",
"+O+oXoXXXXXXXXXXXXo. .+oXXXXXo  ",
"+O+XoXoXXXXXXXXXXXo. .+XoXXXXo  ",
"+O+oXoXXXXXXXXXXXXXo. .+XoXXXo  ",
"+O+XoXXXXXXXXXXXXXXo. .+oXoXoo  ",
"+O+oXXXXXXXXXXXXXXXo. .+oo.ooo  ",
"+O+XoXXXXXXXXXXXXXXo. .o.. ..o. ",
"+O+oXXXXXXXXXXXXXXXo. ..  .  ...",
"XO+XoXXXXXXXXXXXXXXo. . ..+..  .",
".X+oXXXXXXXXXXXXXXXXo. .++o++.. ",
" .++oXXXXXXXXXXXXXXXo. .+oXoX+..",
". ..+XXXXXXXXXXXXXXXo. .+XoXoo .",
"X.  .+XXXXXXXXXXXXXoo. .+oXoXo  ",
"OX.. .ooXXXXXXXXXXo.. .+oXoXXo  ",
"+O++. ..oXXXXXXXXo.  .+oXoXXXo  ",
"+O+o+.  .oooooooo. ..+oXoXoXXo  ",
"+O+Xo+.. ........ .++oXoXoXXXo  ",
"+O+oXo++.         .+oXoXoXXXXo  ",
"+O+XoXoX+....... .+oXoXoXXXXXo  ",
"+O+oXoXoX++++++. .+XoXoXXXXXXo  ",
"+O+XoXXXXXXXXXXo. .+XoXXXXXXXo  ",
"+O+oXXXXXXXXXXXo. .+oXXXXXXXXo  ",
"+O++XXXXXXXXXXooo. .+oXXXXXXoo .",
".OO+ooooooooooooo. .+oooooooo...",
" ................   ........... ",
".                              .",
"X++++++++++++++++++++++++++++++."
};
