/* XPM */
static char *result[] = {
/* columns rows colors chars-per-pixel */
"32 32 5 1 ",
"  c gray20",
". c #0A6600",
"X c #109400",
"o c #8CD600",
"O c #BDE573",
/* pixels */
"XoXoXoXoXoXoXoXoXoXoXoXoXoXoXoX.",
"oXoXoXoXoXoXoXo....XoXoXoXoXoXoo",
"XoXoXoXoXoXoX..Ooo...oXoXoXoXoXo",
"oXoXoXoXoXoX.OoXXoX.X oXoXoXoXoX",
"XoXoXoXoXoX.OoX.oX.ooX oXoXoXoXo",
"oXoXoXoXoX.OoX..XX.XOoX oXoXoXoX",
"XoXoXoXoXo.OoX..oXX.XOo XoXoXoXo",
"oXoXoXoXo.OoX..oXoXX.X.X XoXoXoX",
"XoXoXoXoX.OOo..XoXX.X.Xo oXoXoXo",
"oXoXoXoXo.oOOo.oXoXX.Oo. XoXoXoX",
"XoXoXoXoX.XoOOOOOOOOOo.. oXoXoXo",
"oXoXoXoXoX.XooOOOOooo.. oXoXoXoX",
"XoXoXoXoXo.X.Xoooo..... XoXoXoXo",
"oXoXoXoXoXo.X........X XoXoXoXoX",
"XoXoXoXoXoXo.XX.....X XoXoXoXoXo",
"oXoXoXoXoXoXo  XXXX  XoXoXoXoXoX",
"XoXoXoXoXoXoXoX    oXoXoXoXoXoXo",
"oXoXoXoXoXoXoXoOXo.XoXoXoXoXoXoX",
"XoXoXoXoXoXoXoXOXo.oXoXoXoXoXoXo",
"oXoXoXoXoXoXoXoOXo.XoXoXoXoXoXoX",
"XoXoXoXoXoXoXoXOXo.oXoXoXoXoXoXo",
"oXoXoXoXoXoXoXoOXo.XoXoXoXoXoXoX",
"XoXoXoXoXoXoXoXOXo.oXoXoXoXoXoXo",
"oXoXoXoXoXoXoXoOXo.XoXoXoXoXoXoX",
"XoXoXoXoXoXoXoXOXo.oXoXoXoXoXoXo",
"oXoXoXoXoXoXoXoOXo.XoXoXoXoXoXoX",
"XoXoXoXoXoXoXoXOXo.oXoXoXoXoXoXo",
"oXoXoXoXoXoXoXoOXo.XoXoXoXoXoXoX",
"XoXoXoXoXoXoXoXOXo.oXoXoXoXoXoXo",
"oXoXoXoXoXoXoXoOXo.XoXoXoXoXoXoX",
"XoXoXoXoXoXoXoXOXo.oXoXoXoXoXoXo",
"oXoXoXoXoXoXoXoOXo.XoXoXoXoXoXoX"
};
