/* XPM */
static char *turn_down1705999044[] = {
/* columns rows colors chars-per-pixel */
"32 32 8 1 ",
"  c #B31200",
". c #FF3118",
"X c #80460D",
"o c #C66300",
"O c #FF945A",
"+ c #FFAC80",
"@ c gray80",
"# c white",
/* pixels */
"################################",
"################################",
"##############....##############",
"############..@@##..############",
"###########..........###########",
"##########...      ...##########",
"######++##.          .##++######",
"###+++O+#.. XXXOOXXX ..#+O+++###",
"##++OO+O#.XOOOO++OOOOX.#O+OO++##",
"##+O+OO+#Xo+@XO+OOX@+oX#+OO+O+##",
"##++O+Oo+oX+#oOOOOo#+Xo+oO+O++##",
"##+OOOoXO+XoOO++++OOoX+OXoOOO+##",
"##+ooXXXO+oXo++O+++oXo+OXXXoo+##",
"##ooXXXXoO+XXXOOO+XXX+OoXXXXoo##",
"##ooXXXXXOO+XooooooX+OOXXXXXoo##",
"###oooXXXoO++O+XX+O++OXXXXooo###",
"####oooXXXO+O+OXXO+O+OXXXooo####",
"#####ooXXX.OOOO++OOOO.XXXoo#####",
"#######oX .. O+OO+O .. Xo#######",
"########X              X########",
"########X ...      ... X########",
"######## .+#...  ...+#. ########",
"########..O+........O+..########",
"######XXXX   ......   XXXX######",
"#####XoooXX . .... . XXoooX#####",
"####XXXXXXXX .    . XXXXXXXX####",
"####XoooXooX        XooXoooX####",
"####XXXXXXXX        XXXXXXXX####",
"####XXoXoooXX  ##  XXoooXoXX####",
"#####XXXXXXXX #### XXXXXXXX#####",
"#####XXXooXoX######XoXooXXX#####",
"######XXXXXX########XXXXXX######"
};
