/* XPM */
static char *turn_up1705999044[] = {
/* columns rows colors chars-per-pixel */
"32 32 8 1 ",
"  c #B31200",
". c #FF3118",
"X c #80460D",
"o c #C66300",
"O c #FF945A",
"+ c #FFAC80",
"@ c gray80",
"# c white",
/* pixels */
"#########################++#####",
"#############......######+O+++##",
"#########..... .@#..#####O+OO++#",
"#######.....  .@ .#.#####+OO+O+#",
"######..        .........oO+O++#",
"#####.       ...          XOOO+#",
"#####.                   oXXXX+#",
"##### .    XXXoO@XOOX@Xo#oXXXXo#",
"######XXoXXXoOO+#oO+o#o#ooXXXXo#",
"#####XXo+oXoOO+O++OO++++oXXXXo##",
"#####Xo+OoXOO+++OOO+OO+++XXXXo##",
"#####XoOO+oO+++oXooOOOO+++XXXo##",
"#####XXoO++oO+oXXXXooO+O++XXXo##",
"######Xoo++++OOoXXXXXXooooXXo###",
"######XXoO+++++OooooooO+XXXo####",
"#######XOOOOOOOOOOOOOO+XXXXo####",
"########ooo. XXoooo .oXXXXo#####",
"######ooXXXo. XXoooo .oXXo######",
"####ooXXXXXXo. oooooo .Xo#######",
"###oXoXXXXXXo .       .X########",
"##oXXXoXXXXoo  ..     ..########",
"#ooXXXXXoooo  .+#.....+#########",
"ooXXXXooo    ..O+.....O+#####o##",
"O+OOooo       .  .....    ##oX##",
"OO+OOo       . ......... . XoX##",
"+OOO+XX         . .....   XoXX##",
"O+OOXXoX         . ..     oXoX##",
"+++#XoXo       ..       . XooX##",
"###XXooX    ....#........XXoX###",
"###XooXo....############.XoX####",
"###XXX##########################",
"###XX###########################"
};
