/* XPM */
static char *result[] = {
/* columns rows colors chars-per-pixel */
"32 32 9 1 ",
"  c gray20",
". c #522100",
"X c #0A6600",
"o c #664733",
"O c #9C4A00",
"+ c #109400",
"@ c #8CD600",
"# c #E5968A",
"$ c #FFCEC6",
/* pixels */
"+@+@+@+@+@+@+@+@+@+@+@+@+@+@+@+X",
"@+@+@+@+@+@+@+@+@+@+@+@+@+@+@+@@",
"+@+@+@+@+@+@+####oo  @+@+@+@+@+@",
"@+@+@+@+@+@###$$$OOoo  +@+@+@+@+",
"+@+@+@+@+@#$$$$$.$.Ooo  +@+@+@+@",
"@+@+@+@+@#$$$$$...$$Ooo  +@+@+@+",
"+@+@+@+@#$$$$$OO.$$$$Oo  @+@+@+@",
"@+@+@+@+#$$$OO$$OO$$$Ooo  @+@+@+",
"+@+@+@+@#$$O  $O  O$$Ooo  +@+@+@",
"@+@+@+@#$$$O  $O  O$$$Ooo  +@+@+",
"+@+@+@+#$$O  o$O   O$$Ooo  @+@+@",
"@+@+@+@#$$O oo$O  oO.$Ooo  +@+@+",
"+@+@+@#$$$O o.$O  oO..$Ooo  +@+@",
"@+@+@+#$$O  o.$O  . O.$Ooo  @+@+",
"+@+@+@#$$O  o.$O  . O.$Ooo  +@+@",
"@+@+@+#$$O  o.$O  . O..Ooo  @+@+",
"+@+@+@#$$O  o.$O  . O..Ooo  +@+@",
"@+@+@+#$$O  o.$O  . O.$Ooo  @+@+",
"+@+@+@#$$O  o.$O  o O.$Ooo  +@+@",
"@+@+@+#$$$O oo$O  oO..$Ooo  @+@+",
"+@+@+@+#$$O oo$O  oO..Ooo  @+@+@",
"@+@+@+@#$$O  o$O   O..Ooo  +@+@+",
"+@+@+@+#$$$O  $O  O..$Ooo  @+@+@",
"@+@+@+@+#$$O  OO  O..Ooo  @+@+@+",
"+@+@+@+@#$$$OO  OO...Ooo  +@+@+@",
"@+@+@+@+#$$$$$OO$...$Oo  +@+@+@+",
"+@+@+@+@+#$$$..$$..$Ooo  @+@+@+@",
"@+@+@+@+@+#$.$$$..$Ooo  @+@+@+@+",
"+@+@+@+@+@+###$$.OOoo  @+@+@+@+@",
"@+@+@+@+@+@+@OOOOoo   @+@+@+@+@+",
"+@+@+@+@+@+@+@+@+@+@+@+@+@+@+@+@",
"@+@+@+@+@+@+@+@+@+@+@+@+@+@+@+@+"
};
