/* XPM */
static char *result[] = {
/* columns rows colors chars-per-pixel */
"32 32 11 1 ",
"  c #0A6600",
". c #B31200",
"X c #FF3118",
"o c #80460D",
"O c #C66300",
"+ c #109400",
"@ c #8CD600",
"# c #FF945A",
"$ c #FFAC80",
"% c gray80",
"& c white",
/* pixels */
"+@+@+@+@+@+@+@+XXXXXX@+@+@+@+@+ ",
"@+@+@+@+@+@XXXXX.X%&XX@+@+@+@+@@",
"+@+@+@+@+XXXXX..X%.X&X+@+@+@+@+@",
"@+@+@+@+XX........XXXXXXXXX+@+@+",
"+@+@+@+X.......XXX..........+@+@",
"@+@+@+@X...................+@+@+",
"+@+@+@+.X....oooO#%o##o%oO+@+@+@",
"@+@+@+@+ooOoooO##$&O#$O&O+@+@+@+",
"+@+@+@+ooO$OoO##$#$$##$$$$+@+@+@",
"@+@+@+@oO$#Oo##$$$###$##$$$+@+@+",
"+@+@+@+oO##$O#$$$OoOO####$$$+@+@",
"@+@+@+@ooO#$$O#$OooooOO#$#$$@+@+",
"+@+@+@+@oOO$$$$##OooooooOOO@+@+@",
"@+@+@+@+ooO#$$$$$#OOOOOO#$@+@+@+",
"+@+@+@+@+o##############$@+@+@+@",
"@+@+@+@+@+OOoooooOOO..XO@+@+@+@+",
"+@+@+@+@+OOoooooooOOOX.oO@+@+@+@",
"@+@+@+@+@OOooooooooOOOOO#$@+@+@+",
"+@+@+@+@+OOooooooooooooo$$##+@+@",
"@+@+@+@+$XOOoooooooooooo$##$@+@+",
"+@+@+@+$#.XOOOOooooooooo##$#+@+@",
"@+@+@+@##XX....OOOOooooo#$#$@+@+",
"+@+@+@+o.X.........OOOOO#$$$+@+@",
"@+@+@+ooO...........XXXXX+@+@+@+",
"+@+@+@oOo..X.....X...X.X+@+@+@+@",
"@+@+@oOOo...X..XX...X.XX@+@+@+@+",
"+@+@+oOoO..X.XX@.....XX@+@+@+@+@",
"@+@+@ooOoXXXXX@+XX..Xoo+@+@+@+@+",
"+@+@+ooo+@+@+@+@ooooOo+@+@+@+@+@",
"@+@+@oo+@+@+@+@+OoOOoOOo@+@+@+@+",
"+@+@+@+@+@+@+@+@ooooooo@+@+@+@+@",
"@+@+@+@+@+@+@+@+@+@+@+@+@+@+@+@+"
};
