/* XPM */
static char *result[] = {
/* columns rows colors chars-per-pixel */
"32 32 9 1 ",
"  c gray20",
". c #522100",
"X c #0A6600",
"o c #664733",
"O c #9C4A00",
"+ c #109400",
"@ c #8CD600",
"# c #E5968A",
"$ c #FFCEC6",
/* pixels */
"+@+@+@+@+@+@+@+@+@+@+@+@+@+@+@+X",
"@+@+@+@+@+@+@+@+@+@+@+@+@+@+@+@@",
"+@+@+@+@+@+$$##oooo@+@+@+@+@+@+@",
"@+@+@+@+@$$##OO   ooo+@+@+@+@+@+",
"+@+@+@+@$$##O. .     o+@+@+@+@+@",
"@+@+@+@$$##O  ...     o+@+@+@+@+",
"+@+@+@+$$#O    .OO     o+@+@+@+@",
"@+@+@+$$##O   OO  OO   o@+@+@+@+",
"+@+@+@$$##O  O  O   O  o+@+@+@+@",
"@+@+@$$##O   O  O   O   o+@+@+@+",
"+@+@+$$##O  O   O o  O  o@+@+@+@",
"@+@+@$$##O .Oo  O oo O  o+@+@+@+",
"+@+@$$##O ..Oo  O .o O   o+@+@+@",
"@+@+$$##O .O .  O .o  O  o@+@+@+",
"+@+@$$##O .O .  O .o  O  o+@+@+@",
"@+@+$$##O..O .  O .o  O  o@+@+@+",
"+@+@$$##O..O .  O .o  O  o+@+@+@",
"@+@+$$##O .O .  O .o  O  o@+@+@+",
"+@+@$$##O .O o  O .o  O  o+@+@+@",
"@+@+$$##O ..Oo  O oo O   o@+@+@+",
"+@+@+$$##O..Oo  O oo O  o@+@+@+@",
"@+@+@$$##O..O   O o  O  o+@+@+@+",
"+@+@+$$##O ..O  O   O   o@+@+@+@",
"@+@+@+$$##O..O  OO  O  o@+@+@+@+",
"+@+@+@$$##O...OO  OO   o+@+@+@+@",
"@+@+@+@$$#O ... OO     o@+@+@+@+",
"+@+@+@+$$##O ..  ..   o@+@+@+@+@",
"@+@+@+@+$$##O ..   . o@+@+@+@+@+",
"+@+@+@+@+$$##OO.  ooo@+@+@+@+@+@",
"@+@+@+@+@+$$$##OOOO+@+@+@+@+@+@+",
"+@+@+@+@+@+@+@+@+@+@+@+@+@+@+@+@",
"@+@+@+@+@+@+@+@+@+@+@+@+@+@+@+@+"
};
