/* XPM */
static char *result[] = {
/* columns rows colors chars-per-pixel */
"32 32 8 1 ",
"  c #0A6600",
". c #9C4A00",
"X c #CC7E00",
"o c #CC6A14",
"O c #109400",
"+ c #8CD600",
"@ c #E5968A",
"# c #FFCEC6",
/* pixels */
"O+O+O+O+O+O+O+O+O+O+O+O+O+O+O+O ",
"+O+O+O+O+O+O+O+O+O+O+O+O+O+O+O++",
"O+O+O+O+O+O+O@@@@@@XX+O+O+O+O+O+",
"+O+O+O+O+O@@@######oooXX+O+O+O+O",
"O+O+O+O+O@########....oXX+O+O+O+",
"+O+O+O+@@########....##ooXXO+O+O",
"O+O+O+O@######oooo.#####oXX+O+O+",
"+O+O+O@#####oo###ooo#####oXX+O+O",
"O+O+O+@####o..#..o..oo###oXXO+O+",
"+O+O+@####o.XX#..o...o##.#oXXO+O",
"O+O+O@###o.X..#..o..X.o...oXX+O+",
"+O+O+@###oX...#..o...Xo...oXXO+O",
"O+O+@####oX...#..o...Xo...#oXXO+",
"+O+O@###o.....#..o.....o..#oXX+O",
"O+O+@###o.....#..o.....o...oXXO+",
"+O+O@###o.....#..o.....o...oXX+O",
"O+O+@###o.....#..o.....o...oXXO+",
"+O+O@###o.X...#..o.....o...oXX+O",
"O+O+@###o.XX..#..o...X.o...oXXO+",
"+O+O@####oXXXX#..o..XXo...#oXX+O",
"O+O+O@###oXXXX#..o..XXo...oXX+O+",
"+O+O+@###o.XXX#..o..X.o...oXXO+O",
"O+O+O@####o.XX#..o...o...#oXX+O+",
"+O+O+O@####o..oooo..oo...oXX+O+O",
"O+O+O+@#####oo....oo##..#oXXO+O+",
"+O+O+O+@######oooo####.#oXXO+O+O",
"O+O+O+O@@######..######ooXX+O+O+",
"+O+O+O+O+@####...####.oXXO+O+O+O",
"O+O+O+O+O+@@@..####oooXXO+O+O+O+",
"+O+O+O+O+O+O+ooooooXXO+O+O+O+O+O",
"O+O+O+O+O+O+O+O+O+O+O+O+O+O+O+O+",
"+O+O+O+O+O+O+O+O+O+O+O+O+O+O+O+O"
};
