/* XPM */
static char *result[] = {
/* columns rows colors chars-per-pixel */
"32 32 9 1 ",
"  c #0A6600",
". c #9C4A00",
"X c #CC7E00",
"o c #CC6A14",
"O c #109400",
"+ c #E69C21",
"@ c #8CD600",
"# c #E5968A",
"$ c #FFCEC6",
/* pixels */
"O@O@O@O@O@O@O@O@O@O@O@O@O@O@O@O ",
"@O@O@O@O@O@O@O@O@O@O@O@O@O@O@O@@",
"O@O@O@O@O@O@O########@O@O@O@O@O@",
"@O@O@O@O@O###$$$$$$$$XXX@O@O@O@O",
"O@O@O@O@##$$$$$$$$$+++++XXO@O@O@",
"@O@O@O@#$$$$$$$$$$++++$$$$XO@O@O",
"O@O@O@#$$$$$$$XXXXXX+$$$$$$XO@O@",
"@O@O@#$$$$$$XX$$$$$XXX$$$$$$XO@O",
"O@O@O#$$$$XX..$++++X..XX$$$$X@O@",
"@O@O#$$$$XX.oo$++++X.o.XX$$+$X@O",
"O@O@#$$$$X.o++$++++X.+o.X$+++XO@",
"@O@O#$$$X.o+++$++++X.++o.X+++X@O",
"O@O#$$$$X.o+++$++++X.++o.X+++$X@",
"@O@#$$$X.o++++$++++X.+++o.X+++XO",
"O@O#$$$X.o++++$++++X.+++o.X+++X@",
"@O@#$$$X.+++++$++++X.++++.X+++XO",
"O@O#$$$X.+++++$++++X.++++.X+++X@",
"@O@#$$$X.o++++$++++X.+++o.X+++XO",
"O@O#$$$X.ooo++$++++X.+ooo.X+++X@",
"@O@#$$$$X.oooo$++++X.ooo.X++++XO",
"O@O@#$$$X.oooo$++++X.ooo.X+++XO@",
"@O@O#$$$$X.ooo$++++X.oo.X++++X@O",
"O@O@#$$$$XX.oo$++++X.o.XX+++$XO@",
"@O@O@#$$$$XX..XXXXXX..XX$+++XO@O",
"O@O@O#$$$$$$XX......XX$$$+++X@O@",
"@O@O@O#$$$$$$$XXXXXX$$$$$+$X@O@O",
"O@O@O@O#$$$$$$$$+++$$$$$+$X@O@O@",
"@O@O@O@O##$$$$$+++$$$$$+XX@O@O@O",
"O@O@O@O@O@###+++$$$$$XXXO@O@O@O@",
"@O@O@O@O@O@O@XXXXXXXXO@O@O@O@O@O",
"O@O@O@O@O@O@O@O@O@O@O@O@O@O@O@O@",
"@O@O@O@O@O@O@O@O@O@O@O@O@O@O@O@O"
};
