/* XPM */
static char *result[] = {
/* columns rows colors chars-per-pixel */
"32 32 46 1 ",
"  c #0A6600",
". c #9C4A00",
"X c #A85700",
"o c #A85205",
"O c #B45A0A",
"+ c #B46400",
"@ c #AE5D22",
"# c #BA6527",
"$ c #BA6A22",
"% c #C0620F",
"& c #C07100",
"* c #CC7E00",
"= c #CC6A14",
"- c #C66D2C",
"; c #C67722",
": c #D27531",
"> c #C07045",
", c #CC7D45",
"< c #CC784A",
"1 c #109400",
"2 c #459422",
"3 c #4CA231",
"4 c #7A9545",
"5 c #8CD600",
"6 c #A2C522",
"7 c #A9D331",
"8 c #9D8245",
"9 c #A98A4A",
"0 c #B8B645",
"q c #88B163",
"w c #B6A376",
"e c #D88A45",
"r c #D8804F",
"t c #C89B4A",
"y c #D38367",
"u c #DF8B6C",
"i c #D99176",
"p c #E5997B",
"a c #BFC454",
"s c #C6D263",
"d c #BDB185",
"f c #C3BF94",
"g c #F2B2A8",
"h c #E2D094",
"j c #F8C0B7",
"k c #FFCEC6",
/* pixels */
"1515151515151515151515151515151 ",
"5151515151517qa40404615151515155",
"1515151517qawgprrrrr904615151515",
"515151517fji>>#%====:rr961515151",
"1515153sdgp-o..o%======:90251515",
"515151skgu:=%Oo@<rr:====:u015151",
"151517fjp:===:<yy>><r:===:961515",
"51515qkgr==:r<>y>..@><:===r45151",
"15153hjp-%=ry@.>>..X+$<:==:t2515",
"5151skg<oo-<$X.>>..X++$<:==r0151",
"1515qkg>..>,+X.>>....X+,r==r4515",
"5153hjp#..>e+..>>.....+er==:t251",
"151skgrO.@>$X..>>.....X$<:==r015",
"515qkg<o.>>....>>.......>r==r451",
"151skg>..>>....>>.......>r==r015",
"515qkg>..>>....>>.......>r==r451",
"151skg>..>>....>>.....XX>r==r015",
"515qkg>..>>XX..>>....X&+>r==r451",
"151skg<o.@>;&X.>>..X+&*;<:==r015",
"5153hjp#..>e*+.>>..+***er==:t251",
"1515qkg>..>,&+.>>..+**&,r==r4515",
"5151skg<o.@>$X.>>..+*&$<:==r0151",
"15153hjp#..>y@.>y>>$+$<:==:t2515",
"51515qkg<o.#r<>>>>>>><:===r45151",
"151517fjp-oO=:r<>>><r:===:961515",
"515151skgu-%===:<><:====:u015151",
"1515153sdgp-%===O.o%===:90251515",
"515151517fji<r:=%Ooo-rr961515151",
"1515151517qawgprrr<>804615151515",
"5151515151517qa40404615151515151",
"15151515151515151515151515151515",
"51515151515151515151515151515151"
};
