/* XPM */
static char *result[] = {
/* columns rows colors chars-per-pixel */
"32 32 13 1 ",
"  c black",
". c gray20",
"X c #522100",
"o c #0A6600",
"O c #664733",
"+ c #9C4A00",
"@ c #CC7E00",
"# c #CC6A14",
"$ c #109400",
"% c #E69C21",
"& c #8CD600",
"* c #E5968A",
"= c #FFCEC6",
/* pixels */
"$&$&$&$&$&$&$&$&$&$&$&$&$&$&$&$o",
"&$&$&$&$&$&$&$&$&$&$&$&$&$&$&$&&",
"$&$&$&$&$&$&$======&$&$&$&$&$&$&",
"&$&$&$&$&$&$==*****=&$&$&$&$&$&$",
"$&$&$&$&$&$&=**%%%% $&$&$&$&$&$&",
"&$&$&$&$&$&$=*%%%%% &$&$&$&$&$&$",
"$&$&$&$&$&$&=%%%%%% $&$&$&$&$&$&",
"&$&$&$&$&$&$=%%@@@@ &$&$&$&$&$&$",
"$&$&$&$&$&$&=%@@@@@ $&$&$&$&$&$&",
"&$&$&$&$&$&$=%@@@@@ &$&$&$&$&$&$",
"$&$&$&$&$&$&=@@@@@@ $&$&$&$&$&$&",
"&$&$&$&$&$&$=@@#### &$&$&$&$&$&$",
"$&$&$&$&$&$&=@##### $&$&$&$&$&$&",
"&$&$&$&$&$&$=@##### &$&$&$&$&$&$",
"$&$&$&$&$&$&=###### $&$&$&$&$&$&",
"&$&$&$&$&$&$=###### &$&$&$&$&$&$",
"$&$&$&$&$&$&=++++++ $&$&$&$&$&$&",
"&$&$&$&$&$&$=++++++ &$&$&$&$&$&$",
"$&$&$&$&$&$&=+++++O $&$&$&$&$&$&",
"&$&$&$&$&$&$=+++++O &$&$&$&$&$&$",
"$&$&$&$&$&$&=++++OO $&$&$&$&$&$&",
"&$&$&$&$&$&$=OOOOOO &$&$&$&$&$&$",
"$&$&$&$&$&$&=OOOOO. $&$&$&$&$&$&",
"&$&$&$&$&$&$=OOOOO. &$&$&$&$&$&$",
"$&$&$&$&$&$&=OOOO.. $&$&$&$&$&$&",
"&$&$&$&$&$&$=...... &$&$&$&$&$&$",
"$&$&$&$&$&$&=.....X $&$&$&$&$&$&",
"&$&$&$&$&$&$=....XX &$&$&$&$&$&$",
"$&$&$&$&$&$&=XXXXX  $&$&$&$&$&$&",
"&$&$&$&$&$&$&      $&$&$&$&$&$&$",
"$&$&$&$&$&$&$&$&$&$&$&$&$&$&$&$&",
"&$&$&$&$&$&$&$&$&$&$&$&$&$&$&$&$"
};
