/* XPM */
static char *result[] = {
/* columns rows colors chars-per-pixel */
"32 32 10 1 ",
"  c black",
". c #0A6600",
"X c #F85000",
"o c #109400",
"O c #F88000",
"+ c #D8A038",
"@ c #8CD600",
"# c #F8F800",
"$ c #F8D870",
"% c #F8F8F8",
/* pixels */
"o@o@o@o@o@o@o@o@o@o@o@o@o@o@o@o.",
"@o@o@o@o@o@o@o@o@o@o@o@o@o@o@o@@",
"o@o@o@o@o@o@o@o@o@o@o@o@o@o@o@o@",
"@o@o@o@o@o@o@o@o@o@o@o@o@o@o@o@o",
"o@o@o@o@o@o@o@o@o@o@o@o@o@o@o@o@",
"@o@o@o@o@o@            o@o@o@o@o",
"o@o@o@o@o@    XXXXXX    o@o@o@o@",
"@o@o@o@o@      XXXX      o@o@o@o",
"o@o@o@o@o   %%  OO  %%   @o@o@o@",
"@o@o@o@o X %%%%    %%%% X @o@o@o",
"o@o@o@o@ XX%%%%%OO%%%%%XX o@o@o@",
"@o@o@o@ XXO%%%  OO  %%%OXX o@o@o",
"o@o@o@o XXO%%% %OO% %%%OXX @o@o@",
"@o@o@o XXOOO%% OOOO %%OOOXX @o@o",
"o@o@o@ XXOOOOOOOOOOOOOOOOXX o@o@",
"@o@o@ XXOOO%OOOOOOOOOO%OOOXX o@o",
"o@o@o XXOOO%          %OOOXX @o@",
"@o@o@ XXXXX XXXXXXXXXX XXXXX o@o",
"o@o@o@ XXXXXXXXXXXXXXXXXXXX o@o@",
"@o@o@o@                    o@o@o",
"o@o@o@o@o@ +$$$$$$$$$+ @o@o@o@o@",
"@o@o@o@o@o +$$$$$$$$$+ o@o@o@o@o",
"o@o@o@o@o@ +$$$$$$$$$+ @o@o@o@o@",
"@o@o@o@       $$$$$$       o@o@o",
"o@o@o@ XXXXXXX ++++ XXXXXXX o@o@",
"@o@o@o XXXXXXX      XXXXXXX @o@o",
"o@o@o ######## @o@o ######## @o@",
"@o@o@          o@o@          o@o",
"o@o@o@o@o@o@o@o@o@o@o@o@o@o@o@o@",
"@o@o@o@o@o@o@o@o@o@o@o@o@o@o@o@o",
"o@o@o@o@o@o@o@o@o@o@o@o@o@o@o@o@",
"@o@o@o@o@o@o@o@o@o@o@o@o@o@o@o@o"
};
