/* XPM */
static char *turn_left21706630433[] = {
/* columns rows colors chars-per-pixel */
"32 32 11 1 ",
"  c #0A6600",
". c #B31200",
"X c #FF3118",
"o c #80460D",
"O c #C66300",
"+ c #109400",
"@ c #8CD600",
"# c #FF945A",
"$ c #FFAC80",
"% c gray80",
"& c white",
/* pixels */
"+@+@+@+@+@+@+XXXXXX@+@+@+@+@+@+ ",
"@+@+@+@+@+@+XX&%X.XXXXX+@+@+@+@@",
"+@+@+@+@+@+@X&X.%X..XXXXX@+@+@+@",
"@+@+@+@XXXXXXXXX........XX@+@+@+",
"+@+@+@..........XXX.......X@+@+@",
"@+@+@+@...................X+@+@+",
"+@+@+@+@Oo%o##o%#Oooo....X.@+@+@",
"@+@+@+@+@O&O$#O&$##OoooOoo@+@+@+",
"+@+@+@+@$$$$##$$#$##OoO$Ooo@+@+@",
"@+@+@+@$$$##$###$$$##oO#$Oo+@+@+",
"+@+@+@$$$####OOoO$$$#O$##Oo@+@+@",
"@+@+@+$$#$#OOooooO$#O$$#Ooo+@+@+",
"+@+@+@+OOOooooooO##$$$$OOo+@+@+@",
"@+@+@+@+$#OOOOOO#$$$$$#Ooo@+@+@+",
"+@+@+@+@+$##############o@+@+@+@",
"@+@+@+@+@OX.OooooOX.OoooOO@+@+@+",
"+@+@+@+@OX.OoOooOX.OooooooOO+@+@",
"@+$#$#OO.X......X.OOooooooOoO+@+",
"+$#$$$#oX......X...OOooooOoooO+@",
"@#$###oo&$X..XX&$.X.OOOOoooooOO+",
"+#$$#ooo$#XXXXX$#X.....OOOooooOO",
"@+##$OOOXXXXXXXXX.X......OOO##$#",
"+@+@+@+@XXX.XXXX.X.X......O##$##",
"@+@+@+@+@X...XX.X.X.......@$###$",
"+@+@+@+@+XX...XX.X.X......+@$#$#",
"@+@+@+@+@+ooX..XX...X....+@+@$$$",
"+@+@+@+@+@+oOoooXX.X....+@+@+@+@",
"@+@+@+@+@oOOoOOoooX..XX+@+@+@+@+",
"+@+@+@+@+@ooooooooOoooo@+@+@+@+@",
"@+@+@+@+@+@+@+@oOOoOOoO+@+@+@+@+",
"+@+@+@+@+@+@+@+@ooooooo@+@+@+@+@",
"@+$$##$+@+@+@+@+@+@+@+@+@+@+@+@+"
};
