/* XPM */
static char *result[] = {
/* columns rows colors chars-per-pixel */
"32 32 11 1 ",
"  c #0A6600",
". c #B31200",
"X c #FF3118",
"o c #80460D",
"O c #C66300",
"+ c #109400",
"@ c #8CD600",
"# c #FF945A",
"$ c #FFAC80",
"% c gray80",
"& c white",
/* pixels */
"+@+@+@+@+@+@+@+@+XXXXX+@+@+@+@+ ",
"@+@+@+@+@+@+@XXXX.X%&XX+@+@+@+@@",
"+@+@+@+@+@XXXXX..X%.X&X@+@+@+@+@",
"@+@+@+@+@XX........XXXXX@+@+@+@+",
"+@+@+@+@X.......XXX.........+@+@",
"@+@+@+@+X....................+@+",
"+@+@+@+@+X....oooOooo##ooo..+@+@",
"@+@+@+@+$ooOoooO##$&O#$O&O@+@+@+",
"+@+@+@$$ooO$OoO##$#$$##$$$+@+@+@",
"@+@+@$#$oO$#Oo##$$$###$##$$+@+@+",
"+@+@$#$#oO##$OO$$$OoOO####$$+@+@",
"@+@+$$##ooO#$$OO$OooooOO#$$$$+@+",
"+@+@+#$##oOO$$$$##OooooooO#$+@+@",
"@+@+@+O$OooO#$$$$$#OOOOOOOO+@+@+",
"+@+@+@+OOOo##############$+@+@+@",
"@+@+@+@+@OOX...OOO######$O@+@+@+",
"+@+@+@+@+$#OOOOooooooooOOO+@+@+@",
"@+@+@+@#$$$ooooooooooooOOO@+@+@+",
"+@+@+@+$##$oooooooooooOOO@+@+@+@",
"@+@+@+@#$##ooooooooooOOOX+@+@+@+",
"+@+@+@+$#$#OooooooOOOOO.X@+@+@+@",
"@+@+@+@+$$#OOOOOOOO..XX.X+@+@+@+",
"+@+@+@+@+XX.X.X.....XX.X+@+@+@+@",
"@+@+@+@+@X.X.ooooo.X..XX@+@+@+@+",
"+@+@+@+@+XX.oOOOOOo.XX.@+@+@+@+@",
"@+@+@+@+@+X..oooooOoX.@+@+@+@+@+",
"+@+@+@+@+oXX.oOOoOoo.@+@+@+@+@+@",
"@+@+@+ooooooX.oooo..@+@+@+@+@+@+",
"+@+@+@oOOoOooo..+@+@+@+@+@+@+@+@",
"@+@+@+@ooOoOOoo+@+@+@+@+@+@+@+@+",
"+@+@+@+@oooooo+@+@+@+@+@+@+@+@+@",
"@+@+@+@+@+@+@+@+@+@+@+@+@+@+@+@+"
};
