/* XPM */
static char *result[] = {
/* columns rows colors chars-per-pixel */
"32 32 11 1 ",
"  c #0A6600",
". c #B31200",
"X c #FF3118",
"o c #80460D",
"O c #C66300",
"+ c #109400",
"@ c #8CD600",
"# c #FF945A",
"$ c #FFAC80",
"% c gray80",
"& c white",
/* pixels */
"+@+@+@+@+@+@+@+@+@+@+@+@+@+@+@+ ",
"@+@+@+@+@+@+@+@+@+@+@+@+@+@+@+@@",
"+@+@+@+@+@+@+@+XXXX@+@+@+@+@+@+@",
"@+@+@+@+@+@+@XX%%&&XX+@+@+@+@+@+",
"+@+@+@+@+@+@XXXXXXXXXX+@+@+@+@+@",
"@+@+@+@+@+@XXX......XXX+@+@+@+@+",
"+@+@+@+$$@+X..........X@+$$@+@+@",
"@+@+$$$#$+XX.ooo##ooo.XX@$#$$$@+",
"+@+$$##$#@Xo####$$####oX+#$##$$@",
"@+@$#$##$+oO$%o#$##o%$Oo@$##$#$+",
"+@+$$#$#O$Oo$&O####O&$oO$O#$#$$@",
"@+@$###Oo#$oO##$$$$##Oo$#oO###$+",
"+@+$OOooo#$OoO$$#$$$OoO$#oooOO$@",
"@+@OOooooO#$ooo###$ooo$#OooooOO+",
"+@+OOooooo##$oOOOOOOo$##oooooOO@",
"@+@+OOOoooO#$$#$oo$#$$#ooooOOO@+",
"+@+@+OOOooo#$#$#oo#$#$#oooOOO@+@",
"@+@+@+OOoooX####$$####XoooOO@+@+",
"+@+@+@+@Oo.XX.#$##$#.XX.oO+@+@+@",
"@+@+@+@+@o..............o+@+@+@+",
"+@+@+@+@+o.XXX......XXX.o@+@+@+@",
"@+@+@+@+@.X$&XXX..XXX$&X.+@+@+@+",
"+@+@+@+@+XX#$XXXXXXXX#$XX@+@+@+@",
"@+@+@+@oooo...XXXXXX...oooo+@+@+",
"+@+@+@oOOOoo.X.XXXX.X.ooOOOo+@+@",
"@+@+@oooooooo.X....X.oooooooo+@+",
"+@+@+oOOOoOOo........oOOoOOOo@+@",
"@+@+@oooooooo........oooooooo+@+",
"+@+@+ooOoOOOoo..+@..ooOOOoOoo@+@",
"@+@+@+oooooooo.+@+@.oooooooo@+@+",
"+@+@+@oooOOoOo+@+@+@oOoOOooo+@+@",
"@+@+@+@oooooo+@+@+@+@oooooo+@+@+"
};
