/* XPM */
static char *result[] = {
/* columns rows colors chars-per-pixel */
"32 32 11 1 ",
"  c #0A6600",
". c #B31200",
"X c #FF3118",
"o c #80460D",
"O c #C66300",
"+ c #109400",
"@ c #8CD600",
"# c #FF945A",
"$ c #FFAC80",
"% c gray80",
"& c white",
/* pixels */
"+@+@+@+@+@+@+XXXXXX@+@+@+@+@+@+ ",
"@+@+@+@+@+@+XX&%X.XXXXX+@+@+@+@@",
"+@+@+@+@+@+@X&X.%X..XXXXX@+@+@+@",
"@+@+@+@XXXXXXXXX........XX@+@+@+",
"+@+@+@..........XXX.......X@+@+@",
"@+@+@+@...................X+@+@+",
"+@+@+@+@Oo%o##o%#Oooo....X.@+@+@",
"@+@+@+@+@O&O$#O&$##OoooOoo@+@+@+",
"+@+@+@+@$$$$##$$#$##OoO$Ooo@+@+@",
"@+@+@+@$$$##$###$$$##oO#$Oo+@+@+",
"+@+@+@$$$####OOoO$$$#O$##Oo@+@+@",
"@+@+@+$$#$#OOooooO$#O$$#Ooo+@+@+",
"+@+@+@+OOOooooooO##$$$$OOo+@+@+@",
"@+@+@+@+$#OOOOOO#$$$$$#Ooo@+@+@+",
"+@+@+@+@+$##############o@+@+@+@",
"@+@+@+@+@+OX..OOOoooooOO@+@+@+@+",
"+@+@+@+@+Oo.XOOOoooooooOO@+@+@+@",
"@+@+@+@+$#OOOOOooooooooOO+@+@+@+",
"+@+@+@##$$oooooooooooooOO@+@+@+@",
"@+@+@+$##$ooooooooooooOOX$@+@+@+",
"+@+@+@#$##oooooooooOOOOX.#$@+@+@",
"@+@+@+$#$#oooooOOOO....XX##+@+@+",
"+@+@+@$$$#OOOOO.........X.o@+@+@",
"@+@+@+@+@XXXXX...........Ooo@+@+",
"+@+@+@+@+@X.X...X.....X..oOo+@+@",
"@+@+@+@+@+XX.X...XX..X...oOOo+@+",
"+@+@+@+@+@+XX.....+XX.X..OoOo@+@",
"@+@+@+@+@+@ooX..XX@+XXXXXoOoo+@+",
"+@+@+@+@+@+@oOoooo+@+@+@+@ooo@+@",
"@+@+@+@+@+oOOoOOoO@+@+@+@+@oo+@+",
"+@+@+@+@+@+ooooooo+@+@+@+@+@+@+@",
"@+@+@+@+@+@+@+@+@+@+@+@+@+@+@+@+"
};
